<svg width="16" height="13" viewBox="0 0 16 13" fill="none" xmlns="http://www.w3.org/2000/svg">
<g clip-path="url(#clip0_656_585)">
<mask id="mask0_656_585" style="mask-type:luminance" maskUnits="userSpaceOnUse" x="0" y="0" width="16" height="13">
<path d="M15.5123 0.332275H0.313744V12.5676H15.5123V0.332275Z" fill="white"/>
</mask>
<g mask="url(#mask0_656_585)">
<path d="M5.33048 0.441451C4.38947 0.659939 3.6711 0.903397 2.78354 1.2998C2.63808 1.36534 2.61433 1.39344 2.40951 1.73365C1.42992 3.36294 0.794665 5.03905 0.506725 6.75886C0.358303 7.65467 0.331587 8.04483 0.334555 9.14975C0.337523 9.71471 0.349397 10.2578 0.36424 10.3514L0.387987 10.5199L0.773887 10.7978C1.73864 11.4875 2.74197 12.0182 3.79281 12.3958C4.00951 12.4738 4.20246 12.5301 4.22027 12.5238C4.29448 12.4926 5.03362 11.2535 5.03362 11.1599C5.03362 11.1473 4.95645 11.1068 4.86442 11.0693C4.62992 10.9726 3.86999 10.5762 3.81953 10.5231C3.76906 10.47 3.78093 10.4513 3.94123 10.3295L4.06888 10.2328L4.36573 10.367C5.93307 11.0693 7.72306 11.2971 9.3824 11.0038C10.1453 10.8696 10.8399 10.648 11.6563 10.2796C11.7601 10.2328 11.7631 10.2328 11.8937 10.3421C11.9649 10.4013 12.0244 10.4669 12.0244 10.4856C12.0244 10.5294 11.4039 10.8726 11.0745 11.01C10.9439 11.0662 10.8251 11.1224 10.8103 11.1348C10.7509 11.1911 11.5197 12.5332 11.6117 12.5363C11.6325 12.5363 11.8047 12.4801 11.9976 12.4083C13.093 12.0119 14.0815 11.4907 15.0521 10.7978L15.4381 10.5199L15.4588 10.3514C15.4678 10.2578 15.4856 9.85511 15.4975 9.46183C15.5806 6.70892 14.9038 4.19943 13.4136 1.73053L13.1939 1.36846L12.7873 1.19055C12.0362 0.862822 11.0567 0.550695 10.3353 0.410239L10.0681 0.357178L10.0177 0.432088C9.988 0.469543 9.89302 0.66306 9.80691 0.859702L9.6496 1.2124L9.50117 1.19367C9.42102 1.18431 9.22509 1.15934 9.07077 1.13749C8.70262 1.08755 7.15608 1.08755 6.77018 1.13749C6.60691 1.15622 6.40803 1.18118 6.3249 1.19367L6.17648 1.20928L5.98354 0.794151C5.75793 0.310359 5.79652 0.332208 5.33048 0.441451ZM5.93604 5.58839C6.3249 5.78815 6.60691 6.17831 6.71378 6.65898C6.77314 6.92117 6.75533 7.35501 6.67221 7.60784C6.33085 8.68152 5.21173 9.00614 4.48446 8.24457C4.00951 7.74514 3.89374 6.93677 4.20246 6.27195C4.37166 5.913 4.64773 5.65081 5.00098 5.52285C5.16424 5.46042 5.23845 5.45106 5.45812 5.46042C5.68372 5.47291 5.74903 5.48851 5.93604 5.58839ZM10.9884 5.59151C11.4959 5.8537 11.8017 6.39991 11.8017 7.04289C11.8017 7.51108 11.6622 7.89808 11.3802 8.21337C10.6084 9.08421 9.36168 8.62852 9.11229 7.38623C8.98168 6.73389 9.25179 6.00664 9.75346 5.66954C9.99688 5.50412 10.2017 5.44794 10.5045 5.46354C10.7331 5.47291 10.7954 5.48851 10.9884 5.59151Z" fill="#2B2B2B"/>
</g>
</g>
<defs>
<clipPath id="clip0_656_585">
<rect width="16" height="13" fill="white"/>
</clipPath>
</defs>
</svg>
