<svg width="17" height="15" viewBox="0 0 17 15" fill="none" xmlns="http://www.w3.org/2000/svg">
<g clip-path="url(#clip0_656_582)">
<path d="M7.85285 0.459283C7.56519 0.615304 7.50766 0.778417 7.50766 1.37414C7.50766 1.67199 7.48608 1.91311 7.45012 1.91311C7.42136 1.91311 6.98269 1.79965 6.4721 1.6649C5.96151 1.52306 5.53002 1.42378 5.51564 1.44505C5.50125 1.45924 5.61632 1.72873 5.77453 2.04787C6.7957 4.04777 7.25596 5.95548 6.99707 7.17529C6.90358 7.63626 6.34984 8.79223 5.89678 9.49431C5.70981 9.77798 5.57317 10.0546 5.59474 10.1113C5.62351 10.1893 5.83925 10.2106 6.57277 10.2106H7.50766V11.629H6.41456C5.45092 11.629 5.28551 11.6148 5.00505 11.48C4.60233 11.2886 4.33624 10.8844 4.28591 10.4233L4.24995 10.0688H0.294678L0.337826 10.622C0.388166 11.2248 0.603908 11.9056 0.92752 12.4516C1.24394 12.9836 2.00623 13.6857 2.58873 13.9906C3.59554 14.5083 3.55958 14.5012 7.90318 14.5012C11.7434 14.5012 11.7937 14.5012 12.1246 14.3451C12.6207 14.1253 13.1385 13.6076 13.6491 12.8346C13.9008 12.4658 14.2532 11.9339 14.4402 11.6502C14.7063 11.2531 14.886 11.0687 15.2744 10.8134C15.5404 10.6362 15.864 10.4588 15.9864 10.4163C16.2092 10.3383 16.2092 10.3383 16.2092 9.80639C16.2092 9.33831 16.1949 9.28157 16.087 9.31704C16.0151 9.33831 15.1018 9.59357 14.0518 9.89145L12.1461 10.4375L11.6427 10.9198C10.9811 11.5652 10.8085 11.629 9.77294 11.629H8.94594V10.2106H9.47813C10.0894 10.2106 10.2116 10.1397 10.9164 9.35957C11.4558 8.76387 11.7075 8.40218 11.9879 7.81356C12.1893 7.40222 12.218 7.26748 12.2108 6.77105C12.2037 6.08314 12.0454 5.63635 11.5205 4.84206C11.1465 4.26762 9.6075 2.69322 9.17606 2.445L8.94594 2.31026V1.68618C8.94594 1.04791 8.85245 0.679131 8.63671 0.508926C8.46411 0.367089 8.06858 0.338721 7.85285 0.459283Z" fill="#2B2B2B"/>
<path d="M4.45849 3.48743C4.32904 3.69309 3.55238 4.89162 2.73256 6.15397C1.91992 7.41632 1.25112 8.4801 1.25112 8.51556C1.25112 8.55103 1.99184 8.57939 3.07774 8.57939H4.90436L5.27831 7.83474C5.71699 6.97663 5.79609 6.45183 5.63788 5.57244C5.48686 4.7356 4.91155 3.11865 4.76772 3.11865C4.73176 3.11865 4.59513 3.28886 4.45849 3.48743Z" fill="#2B2B2B"/>
</g>
<defs>
<clipPath id="clip0_656_582">
<rect width="17" height="15" fill="white"/>
</clipPath>
</defs>
</svg>
